<svg width="237" height="260" viewBox="0 0 237 260" fill="none" xmlns="http://www.w3.org/2000/svg">
<path d="M224.708 51.5901L199.754 169.895C197.871 178.244 192.962 180.322 185.985 176.389L147.963 148.223L129.617 165.961C127.587 168.002 125.889 169.709 121.976 169.709L124.707 130.781L195.176 66.7678C198.24 64.0217 194.512 62.5002 190.414 65.2463L103.297 120.391L65.7926 108.59C57.6346 106.03 57.4869 100.389 67.4906 96.4553L214.187 39.6408C220.979 37.0803 226.922 41.1623 224.708 51.5901V51.5901Z" fill="#411EF8"/>
<path d="M75 90V205H45V90H4.8V65.4H115.2V90H75Z" fill="black"/>
</svg>
