<svg width="728" height="248" viewBox="0 0 728 248" fill="none" xmlns="http://www.w3.org/2000/svg">
<path d="M715.708 36.5901L690.754 154.895C688.871 163.244 683.962 165.322 676.985 161.389L638.963 133.223L620.617 150.961C618.587 153.002 616.889 154.709 612.976 154.709L615.707 115.781L686.176 51.7678C689.24 49.0217 685.512 47.5002 681.414 50.2463L594.297 105.391L556.793 93.5901C548.635 91.0295 548.487 85.3889 558.491 81.4553L705.187 24.6408C711.979 22.0803 717.922 26.1623 715.708 36.5901V36.5901Z" fill="#411EF8"/>
<path d="M94 133H59.8V247H34.4V133H0.2V112.2H94V133ZM135.906 247H111.706L111.906 145.6H135.906V163.6C140.573 151.067 149.106 144.8 161.506 144.8C164.306 144.8 166.573 145 168.306 145.4V168.6C165.24 167.267 161.84 166.6 158.106 166.6C151.573 166.6 146.24 169.267 142.106 174.6C137.973 179.933 135.906 186.6 135.906 194.6V247ZM217.214 230C222.547 230 226.681 228.467 229.614 225.4C232.681 222.2 234.214 218.067 234.214 213V203.4H221.814C215.547 203.4 210.747 204.733 207.414 207.4C204.081 209.933 202.414 213.2 202.414 217.2C202.414 225.733 207.347 230 217.214 230ZM235.214 234.8C230.547 243.467 221.747 247.8 208.814 247.8C199.214 247.8 191.547 245 185.814 239.4C180.214 233.8 177.414 226.733 177.414 218.2C177.414 208.6 181.014 201.067 188.214 195.6C195.414 190.133 205.814 187.4 219.414 187.4H234.214V181.2C234.214 175.6 232.747 171.333 229.814 168.4C226.881 165.467 221.881 164 214.814 164C204.014 164 194.081 167 185.014 173V150.8C192.614 146.133 203.547 143.8 217.814 143.8C245.281 143.8 259.014 156.6 259.014 182.2V247H235.214V234.8ZM335.981 247H309.981L273.381 145.6H298.581L311.981 188.6C314.648 197 316.915 204.533 318.781 211.2C320.648 217.733 321.848 222.2 322.381 224.6L322.981 228.2C324.315 220.733 328.115 207.533 334.381 188.6L348.381 145.6H373.181L335.981 247ZM466.064 241.4C458.997 245.8 448.797 248 435.464 248C419.331 248 406.597 243.2 397.264 233.6C387.931 224 383.264 211.6 383.264 196.4C383.264 180.267 387.664 167.6 396.464 158.4C405.264 149.2 416.264 144.6 429.464 144.6C442.664 144.6 453.131 148.6 460.864 156.6C468.597 164.6 472.464 176.267 472.464 191.6C472.464 195.333 471.997 200.133 471.064 206H407.464C409.197 213.333 412.797 218.933 418.264 222.8C423.864 226.667 430.797 228.6 439.064 228.6C449.731 228.6 458.731 225.933 466.064 220.6V241.4ZM430.064 163.4C424.331 163.4 419.331 165.533 415.064 169.8C410.931 173.933 408.264 180 407.064 188H449.664V185C449.397 178.467 447.597 173.267 444.264 169.4C441.064 165.4 436.331 163.4 430.064 163.4ZM519.523 247H495.523V105.6H519.523V247ZM571.477 247H547.477V105.6H571.477V247ZM633.23 230C638.563 230 642.696 228.467 645.63 225.4C648.696 222.2 650.23 218.067 650.23 213V203.4H637.83C631.563 203.4 626.763 204.733 623.43 207.4C620.096 209.933 618.43 213.2 618.43 217.2C618.43 225.733 623.363 230 633.23 230ZM651.23 234.8C646.563 243.467 637.763 247.8 624.83 247.8C615.23 247.8 607.563 245 601.83 239.4C596.23 233.8 593.43 226.733 593.43 218.2C593.43 208.6 597.03 201.067 604.23 195.6C611.43 190.133 621.83 187.4 635.43 187.4H650.23V181.2C650.23 175.6 648.763 171.333 645.83 168.4C642.896 165.467 637.896 164 630.83 164C620.03 164 610.096 167 601.03 173V150.8C608.63 146.133 619.563 143.8 633.83 143.8C661.296 143.8 675.03 156.6 675.03 182.2V247H651.23V234.8Z" fill="black"/>
</svg>
